<svg xmlns="http://www.w3.org/2000/svg" viewBox="0 0 454.35 454.35"><defs><style>.cls-1{fill:#231f20;}</style></defs><title>Compas - With innerline</title><g id="Laag_2" data-name="Laag 2"><g id="Layer_1" data-name="Layer 1"><path class="cls-1" d="M412.44,285.17a194.73,194.73,0,1,0-37.21,67.49A193.42,193.42,0,0,0,412.44,285.17Zm-309.83,89c-81-68.68-91.08-190.48-22.4-271.51S270.7,11.53,351.73,80.21s91.08,190.49,22.4,271.52S183.65,442.81,102.61,374.13Z"/><path class="cls-1" d="M453.56,208.5A227,227,0,0,0,53.89,80.3a227.15,227.15,0,0,0,192,373.26c3.26-.27,6.49-.62,9.72-1a227.13,227.13,0,0,0,198-244ZM80.93,399.72A226.18,226.18,0,0,1,373.42,54.63,226.18,226.18,0,0,1,80.93,399.72Z"/><path class="cls-1" d="M341.07,418.5l-4.65-7.84,4.68,7.82.41-.25a212.25,212.25,0,0,0,29.12-20.79l.36-.32-5.89-7,5.94,7,.37-.32a236.53,236.53,0,0,0,25.28-25.27l.32-.37-6.78-5.78,6.81,5.75.31-.38a237.16,237.16,0,0,0,20.79-29.08l.25-.42-7.84-4.71,7.85,4.66.25-.41a212.53,212.53,0,0,0,15.73-32.12l.18-.46-8.51-3.34,8.53,3.31.18-.46A226.43,226.43,0,0,0,445,273.44l.1-.47-8.84-1.87,8.86,1.83.1-.48A230,230,0,0,0,449.57,237l0-.49-9.16-.4,9.16.36,0-.49a217.51,217.51,0,0,0-1.45-35.72l-.06-.48-9.11,1.1,9.13-1.15-.07-.48a233,233,0,0,0-7.32-35l-.14-.46-8.79,2.58,8.77-2.62-.14-.47a210.78,210.78,0,0,0-13-33.33l-.22-.43-8.2,4,8.2-4L427,129a232.92,232.92,0,0,0-18.27-30.75l-.28-.4-7.39,5.25,7.34-5.27-.28-.39A220,220,0,0,0,385,70.17l-.35-.34-6.44,6.42,6.41-6.44-.35-.35A213.32,213.32,0,0,0,357,46.35l-.39-.28-5.3,7.37,5.27-7.4-.4-.29A219.84,219.84,0,0,0,325.5,27.38l-.43-.21-4,8,3.94-8.1-.44-.21a232.94,232.94,0,0,0-33.33-13l-.46-.14-2.63,8.74,2.58-8.74-.46-.14a210.49,210.49,0,0,0-35-7.32l-.48-.06-1.14,9,1.1-9-.49-.06A232.93,232.93,0,0,0,218.56,4.7h-.49l.36,9.09L218,4.74l-.48,0a216.86,216.86,0,0,0-35.48,4.42l-.48.1,1.83,8.87-1.87-8.87-.48.1a230.19,230.19,0,0,0-34.3,10.12l-.45.17,3.27,8.46-3.31-8.43-.45.17A225.09,225.09,0,0,0,113.7,35.6l-.42.24,4.71,8-4.74-7.93-.42.25A212.14,212.14,0,0,0,83.72,56.91l-.37.31,5.9,7-5.94-7-.37.31A236.71,236.71,0,0,0,57.65,82.83l-.31.37,6.94,5.91-7-5.88L57,83.6a235.91,235.91,0,0,0-20.79,29.09l-.25.42,7.84,4.71L36,113.15l-.25.41A213.16,213.16,0,0,0,20,145.69l-.17.45,8.52,3.35-8.55-3.31-.17.45A226,226,0,0,0,9.34,180.9l-.1.48L18,183.23l-8.79-1.81-.1.47a229.93,229.93,0,0,0-4.36,35.5l0,.49,9.22.39-9.22-.35v.48a217.59,217.59,0,0,0,1.45,35.73l.06.48,9.11-1.11-9.13,1.15.06.49a233.15,233.15,0,0,0,7.33,35l.14.47,8.7-2.56-8.68,2.6.14.46a210.51,210.51,0,0,0,13,33.34l.22.43,8.11-3.93-8.11,4,.22.44A232.27,232.27,0,0,0,45.59,356.1l.28.4,7.46-5.3-7.42,5.32.28.4a220.9,220.9,0,0,0,23.16,27.25l.35.35,6.44-6.43-6.41,6.45.34.34c4.19,4.21,8.62,8.29,13.15,12.14s9.28,7.53,14.12,11l.4.28,5.3-7.38-5.28,7.41.4.28A219.63,219.63,0,0,0,128.85,427l.43.21,4-8.06-3.94,8.1.44.21a231.36,231.36,0,0,0,33.33,13l.46.14,2.64-8.79-2.59,8.79.46.14a211.08,211.08,0,0,0,35,7.32l.48.06,1.14-9-1.1,9,.48.06a233.12,233.12,0,0,0,35.73,1.49l.49,0-.36-9,.4,9,.48,0a215.09,215.09,0,0,0,35.48-4.42l.48-.1-1.88-9.1,1.92,9.09.47-.1a228.29,228.29,0,0,0,34.3-10.11l.46-.18-3.26-8.43,3.29,8.41.46-.18a226.6,226.6,0,0,0,32.13-15.72Zm-39.5-.44h0l-.41.16a213.12,213.12,0,0,1-31.57,9.3l-.43.09h0l-.48.1A196.79,196.79,0,0,1,236,431.79l-.49,0v0l-.44,0a215.09,215.09,0,0,1-32.89-1.38l-.44-.05v0l-.49-.06a192,192,0,0,1-32.19-6.73l-.47-.14h0l-.42-.13a214.79,214.79,0,0,1-30.65-11.93l-.4-.2v0l-.44-.21a202.56,202.56,0,0,1-28.22-16.91l-.36-.26h0l-.4-.28a194.5,194.5,0,0,1-25.1-21.28l-.35-.34h0L82,371.6a201.82,201.82,0,0,1-21.3-25.07l-.28-.4h0l-.26-.36a214.66,214.66,0,0,1-16.8-28.28l-.2-.4h0l-.22-.44A193.06,193.06,0,0,1,31,286l-.14-.46h0l-.12-.43A213.12,213.12,0,0,1,24,252.9l-.06-.44h0l-.06-.49a197.33,197.33,0,0,1-1.33-32.88l0-.48h0l0-.45a211.72,211.72,0,0,1,4-32.66l.09-.43h0l.1-.48a209,209,0,0,1,9.43-31.51l.16-.42h0l.17-.45A194.37,194.37,0,0,1,51,122.68l.25-.42h0l.23-.38A217.25,217.25,0,0,1,70.62,95.09l.29-.36.31-.35A218.57,218.57,0,0,1,94.5,71.11l.34-.29v0l.37-.32A194.29,194.29,0,0,1,122,51.41l.42-.25h0l.38-.22a207.42,207.42,0,0,1,29.54-14.47l.46-.17h0l.42-.16a212.64,212.64,0,0,1,31.56-9.3l.44-.1h0l.48-.1a197.92,197.92,0,0,1,32.65-4.08h.49v0l.44,0a215,215,0,0,1,32.88,1.38l.44.05h0l.49.06a193.06,193.06,0,0,1,32.19,6.74l.47.14v0l.43.13A215.31,215.31,0,0,1,316.8,42.93l.4.19v0l.44.21a201.59,201.59,0,0,1,28.22,16.91l.36.25h0l.4.28a196.19,196.19,0,0,1,25.11,21.28l.34.35h0l.31.32a201.09,201.09,0,0,1,21.31,25.07l.28.39h0l.26.36A216.63,216.63,0,0,1,411,136.84l.19.4h0l.22.44a193.32,193.32,0,0,1,11.92,30.65l.14.47h0l.12.42a216,216,0,0,1,6.75,32.22l.06.44h0l.07.48a198.41,198.41,0,0,1,1.33,32.88l0,.49h0l0,.44a212,212,0,0,1-4,32.67l-.09.43h0l-.1.47a207.58,207.58,0,0,1-9.42,31.52l-.16.42h0l-.18.46a194.8,194.8,0,0,1-14.46,29.53l-.26.42h0l-.23.38a219.5,219.5,0,0,1-19.14,26.79l-.3.35-.3.36a219.51,219.51,0,0,1-23.28,23.27l-.34.28h0l-.37.32a194.29,194.29,0,0,1-26.76,19.11l-.42.25h0l-.38.23A206.92,206.92,0,0,1,302,417.88Zm39.86-.92-2.5-4.17q2.6-1.56,5.1-3.16l2.63,4.08C344.94,415,343.2,416.08,341.43,417.14Zm17-11.3q-2.46,1.82-5,3.58l-2.76-4c1.66-1.15,3.28-2.31,4.88-3.48Zm-2.1-4.48q2.43-1.8,4.77-3.64l3,3.81q-2.4,1.89-4.89,3.74ZM352.62,410c-1.68,1.15-3.4,2.28-5.14,3.4l-2.63-4.09c1.69-1.09,3.37-2.18,5-3.31Zm12.25-9.05-3-3.81q2.37-1.89,4.64-3.81l3.14,3.71C368.08,398.33,366.48,399.63,364.87,400.92Zm1-8.37q-2.25,1.92-4.61,3.8L360,394.71l-.77.6,1.3,1.64q-2.33,1.85-4.74,3.63l-1.27-1.72-.78.58,1.27,1.72c-1.6,1.16-3.21,2.32-4.87,3.46l-1.19-1.74-.8.55,1.2,1.75c-1.63,1.11-3.3,2.2-5,3.29l-1.12-1.75-.82.53,1.12,1.74c-1.67,1.06-3.36,2.12-5.07,3.15l-5.16-8.62a195.27,195.27,0,0,0,26.11-18.63Zm5.28,3.19L368,392c1.51-1.31,3-2.65,4.48-4l3.27,3.6Q373.48,393.72,371.14,395.74Zm14.86-14c-1.43,1.47-2.88,2.91-4.36,4.35l-3.38-3.49c1.44-1.4,2.85-2.81,4.25-4.24Zm-2.81-4.07q2.08-2.16,4.11-4.37l3.6,3.27c-1.39,1.5-2.79,3-4.22,4.48Zm-2.24,9.1q-2.2,2.13-4.49,4.21l-3.27-3.59c1.48-1.36,2.94-2.72,4.38-4.11Zm10.6-10.92-3.6-3.27c1.35-1.48,2.69-3,4-4.49l3.7,3.16C394.3,372.8,392.94,374.34,391.55,375.86Zm-.35-8.39c-1.3,1.51-2.62,3-4,4.47l-1.57-1.43-.65.72,1.57,1.43q-2,2.19-4.09,4.34L381,375.54l-.68.7,1.51,1.46c-1.39,1.42-2.79,2.82-4.22,4.21l-1.43-1.47-.7.68,1.43,1.48q-2.14,2.06-4.35,4.08l-1.41-1.56-.72.66,1.41,1.55q-2.2,2-4.46,4l-6.51-7.64A221,221,0,0,0,383.55,361Zm2-.86c1.28-1.53,2.53-3.09,3.78-4.66l3.81,3c-1.28,1.62-2.56,3.22-3.87,4.79Zm16.07-13.1q-1.77,2.53-3.58,5l-3.91-2.89q1.79-2.42,3.49-4.89ZM405.83,350q1.69-2.47,3.33-5l4.08,2.63c-1.12,1.73-2.25,3.44-3.41,5.12Zm-.71,9.35c-1.22,1.66-2.47,3.29-3.73,4.9l-3.81-3q1.85-2.35,3.63-4.77Zm8.65-12.52-4.08-2.64c1.08-1.68,2.15-3.37,3.19-5.08l4.17,2.51C416,343.32,414.88,345.06,413.77,346.78Zm-1.72-8.22q-1.56,2.55-3.18,5.06l-1.76-1.14-.53.81,1.77,1.14c-1.09,1.67-2.19,3.33-3.32,5l-1.69-1.17-.55.8,1.68,1.17c-1.14,1.64-2.29,3.26-3.47,4.86l-1.68-1.25-.58.78,1.69,1.25c-1.18,1.61-2.39,3.19-3.61,4.75l-1.67-1.32-.6.77,1.66,1.31q-1.84,2.36-3.75,4.64l-7.67-6.47a219.8,219.8,0,0,0,18.66-26.12Zm1.83-1.18c1-1.7,2-3.44,3-5.2l4.25,2.35c-1,1.81-2,3.59-3.08,5.33Zm13.76-15.54q-1.32,2.81-2.7,5.54l-4.33-2.21c.9-1.78,1.78-3.57,2.64-5.4Zm-4-2.94c.84-1.8,1.65-3.64,2.45-5.49l4.46,1.93c-.82,1.89-1.65,3.78-2.51,5.62Zm.84,9.34c-.94,1.85-1.91,3.66-2.89,5.44l-4.25-2.35q1.44-2.59,2.82-5.3ZM431,314.45l-4.46-1.93c.78-1.83,1.55-3.67,2.28-5.55l4.53,1.78C432.54,310.67,431.75,312.57,431,314.45Zm-3.08-7.83c-.73,1.86-1.5,3.7-2.27,5.52l-1.9-.82-.39.89,1.91.82c-.8,1.84-1.6,3.66-2.44,5.45l-1.91-.9-.41.88,1.91.9c-.86,1.82-1.73,3.6-2.62,5.36l-1.91-1-.44.87,1.91,1c-.91,1.79-1.85,3.55-2.8,5.27l-1.83-1-.47.85,1.82,1c-1,1.75-2,3.48-3,5.17l-8.63-5.13a194.78,194.78,0,0,0,14.11-28.81Zm1.62-1.47c.72-1.88,1.4-3.75,2.07-5.63l4.58,1.61c-.68,1.93-1.38,3.85-2.12,5.78Zm11-17.6c-.56,2-1.15,3.93-1.76,5.89L434.08,292c.6-1.91,1.18-3.83,1.72-5.74Zm-4.41-2.25q.82-2.91,1.54-5.8l4.72,1.16c-.5,2-1,4-1.58,5.95Zm2.36,9.07c-.62,1.95-1.28,3.9-2,5.84l-4.59-1.61c.66-1.9,1.31-3.79,1.91-5.69Zm4.13-14.65-4.72-1.16c.48-2,.94-3.91,1.35-5.85l4.76,1C443.52,275.71,443.05,277.71,442.56,279.72Zm-4.32-7.21q-.62,2.89-1.34,5.82l-2.07-.51-.23.94,2.07.51q-.72,2.88-1.53,5.77l-2.05-.57-.26.93,2,.57c-.55,1.91-1.11,3.81-1.72,5.72l-2-.62-.29.93,2,.62q-.92,2.82-1.91,5.66l-2-.69-.32.91,2,.69c-.66,1.87-1.34,3.74-2.06,5.61l-9.35-3.63a209.8,209.8,0,0,0,9.19-30.74Zm1.36-1.72q.58-2.93,1.1-5.9l4.79.83c-.35,2-.72,4-1.13,6.06Zm7.87-19.18q-.33,3.06-.75,6.11l-4.81-.68c.27-2,.51-4,.73-6Zm-4.72-1.49c.2-2,.38-4,.53-6l4.85.37c-.16,2.05-.34,4.1-.55,6.13Zm3.84,8.56c-.28,2-.6,4.07-.94,6.09l-4.79-.83q.5-3,.92-5.93Zm1.61-15.14-4.85-.36c.15-2,.28-4,.37-6l4.86.21Q448.43,240.47,448.2,243.54Zm-5.45-6.39c-.09,2-.22,4-.36,5.95l-2.08-.15-.08,1,2.08.16c-.15,2-.32,4-.53,6l-2-.22-.11,1,2,.22c-.21,2-.46,4-.72,5.93l-2.09-.3-.14,1,2.1.29c-.28,2-.59,3.94-.91,5.9l-2.1-.36-.16.95,2.09.37c-.34,2-.7,3.92-1.09,5.87l-9.83-2a211.63,211.63,0,0,0,3.9-31.85Zm1.05-1.92c.07-2,.11-4,.13-6l4.86,0q0,3-.13,6.15Zm5-13.09c0,2,.05,4.09,0,6.15l-4.86,0c0-2,0-4,0-6Zm-4.87-.85q-.08-3-.23-6l4.84-.27q.17,3,.24,6.15Zm4.56-7.25-4.84.28c-.12-2-.26-4-.44-6l4.83-.43Q448.27,210.94,448.45,214Zm-1.19-13.22c.25,2,.46,4.05.66,6.12l-4.84.43c-.19-2-.4-4-.65-6Zm-5.79.7q.36,2.94.64,5.94l-2.11.19.09,1,2.11-.18c.18,2,.32,3.94.44,5.95l-2.15.12.05,1,2.15-.12c.1,2,.18,4,.23,6l-2.11.06,0,1,2.11-.05c0,2,0,4,0,6l-2.07,0v1l2.07,0c0,2-.06,3.94-.13,6l-10-.39a197.6,197.6,0,0,0-1.3-32.06Zm.73-2.06c-.26-2-.56-4-.87-5.94l4.8-.76c.32,2,.63,4.06.9,6.09Zm1.25-20.7q.68,3,1.26,6l-4.77.91q-.57-2.94-1.23-5.87Zm-4.95.12q-.66-2.92-1.41-5.83l4.7-1.22c.51,2,1,4,1.45,6Zm6.4,6.86c.39,2,.74,4,1.07,6.06l-4.79.76c-.33-2-.67-3.94-1.05-5.9Zm-5-20.79c.57,2,1.1,4,1.62,5.94l-4.71,1.22c-.5-1.94-1-3.87-1.58-5.79Zm-5.6,1.65q.82,2.86,1.57,5.75l-2,.53.25.94,2-.52q.74,2.88,1.41,5.8l-2,.45.21.95,2-.45c.44,1.94.85,3.88,1.23,5.84l-2.05.39.18.95,2.06-.39c.37,1.95.71,3.91,1,5.88l-2.09.33.15,1,2.09-.33c.31,2,.61,3.93.87,5.9l-10,1.26a216.92,216.92,0,0,0-6.58-31.41Zm.37-2.15q-.85-2.88-1.8-5.73l4.61-1.54c.64,1.95,1.27,3.91,1.85,5.88Zm-2.09-20.65q1.15,2.85,2.23,5.74l-4.56,1.68c-.7-1.87-1.42-3.74-2.18-5.59Zm-4.87.93c-.76-1.86-1.55-3.69-2.36-5.52l4.43-2q1.26,2.81,2.43,5.65Zm7.44,5.72c.7,1.92,1.37,3.86,2,5.81l-4.61,1.54c-.64-1.9-1.29-3.79-2-5.67Zm-8.37-19.68q1.33,2.76,2.61,5.58l-4.44,2c-.83-1.83-1.67-3.64-2.55-5.44Zm-5.25,2.55c.87,1.78,1.71,3.59,2.53,5.4l-1.89.85.39.88,1.9-.84c.81,1.81,1.6,3.64,2.35,5.48l-2,.81.37.9,2-.8q1.11,2.76,2.16,5.56l-2,.74.34.91,2-.74q1,2.81,2,5.64l-2,.65.31.93,2-.66q.93,2.83,1.79,5.7l-9.62,2.87a194.19,194.19,0,0,0-11.63-29.9Zm0-2.19q-1.33-2.69-2.75-5.34l4.29-2.28c1,1.82,1.91,3.64,2.82,5.48Zm-5.53-20q1.62,2.63,3.15,5.3L415,118.84c-1-1.73-2-3.45-3.07-5.15Zm-4.63,1.72c-1.06-1.7-2.13-3.38-3.23-5l4.05-2.69c1.12,1.72,2.23,3.44,3.31,5.19Zm8.27,4.42q1.53,2.67,3,5.39l-4.28,2.28c-.95-1.76-1.91-3.52-2.91-5.26ZM408.24,99.2q1.77,2.52,3.46,5.1L407.65,107c-1.1-1.66-2.22-3.32-3.37-5Zm-4.75,3.38q1.71,2.44,3.35,4.94l-1.76,1.17.53.81,1.77-1.17c1.09,1.67,2.16,3.34,3.21,5l-1.78,1.1.51.82,1.77-1.09q1.56,2.53,3.05,5.13l-1.78,1,.49.84,1.78-1q1.49,2.6,2.89,5.22l-1.86,1,.46.86,1.85-1q1.41,2.64,2.74,5.31l-9,4.42a214.61,214.61,0,0,0-16.38-27.58Zm-.36-2.15c-1.15-1.61-2.35-3.22-3.57-4.82l3.85-3c1.26,1.65,2.49,3.29,3.67,4.95Zm-8.77-18.8c1.38,1.57,2.7,3.13,4,4.69L394.6,89.4c-1.26-1.52-2.55-3-3.89-4.56Zm-4.29,2.47q-2-2.2-4.05-4.43l3.55-3.31c1.42,1.51,2.81,3,4.15,4.54Zm8.91,3c1.32,1.61,2.6,3.21,3.84,4.82l-3.85,3q-1.82-2.36-3.74-4.69ZM384.65,71.21c1.46,1.48,2.87,3,4.26,4.43L385.36,79c-1.35-1.43-2.73-2.87-4.16-4.32Zm-4.14,4.11c1.42,1.45,2.79,2.88,4.14,4.31l-1.52,1.42.66.71,1.52-1.42c1.38,1.47,2.73,2.94,4,4.41l-1.56,1.36.64.73L390,85.48c1.33,1.51,2.62,3,3.87,4.54l-1.65,1.35.62.75,1.65-1.36c1.28,1.56,2.52,3.11,3.73,4.67l-1.69,1.3.59.77,1.69-1.3c1.22,1.6,2.41,3.2,3.55,4.8l-8.15,5.86a203.45,203.45,0,0,0-20.78-24.45Zm-.69-2.06q-2.13-2.13-4.31-4.18l3.31-3.55c1.5,1.41,3,2.83,4.42,4.28Zm-5-4.85c-1.46-1.36-2.94-2.71-4.44-4l3.2-3.66c1.54,1.36,3.05,2.74,4.55,4.14Zm-2-8.32-3.2,3.65c-1.5-1.31-3-2.61-4.57-3.88l3.08-3.75C369.71,57.41,371.28,58.74,372.82,60.09Zm-8.52-.85q-2.32-1.89-4.71-3.71l3-3.85q2.44,1.86,4.83,3.81Zm-2.52-8.15-3,3.85q-2.38-1.83-4.83-3.57l2.84-3.95C358.5,48.61,360.15,49.84,361.78,51.09Zm-8.35,1.07c1.61,1.15,3.21,2.34,4.8,3.55L357,57.35l.77.59L359,56.29q2.37,1.83,4.68,3.7l-1.35,1.66.75.62,1.35-1.66q2.31,1.91,4.55,3.86l-1.4,1.61.73.64,1.41-1.61q2.23,2,4.42,4l-1.42,1.53.71.66,1.41-1.52c1.45,1.37,2.89,2.75,4.29,4.15l-7.08,7.12c-3.77-3.77-7.74-7.43-11.81-10.88s-8.34-6.77-12.68-9.87Zm-1-1.93q-2.49-1.75-4.95-3.39l2.7-4.05c1.68,1.13,3.37,2.28,5.08,3.48Zm-14.33-15c1.75,1,3.51,2.07,5.28,3.17l-2.56,4.13c-1.73-1.07-3.44-2.1-5.15-3.09Zm-3.26,3.72c-1.76-1-3.5-2-5.25-2.93l2.29-4.28q2.68,1.44,5.38,3Zm9.36,0c1.71,1.07,3.44,2.19,5.17,3.34l-2.69,4c-1.69-1.12-3.37-2.22-5-3.27ZM331,31.27l-2.29,4.29q-2.67-1.43-5.34-2.74l2.15-4.36C327.34,29.36,329.16,30.3,331,31.27Zm-8.06,2.43q2.65,1.29,5.32,2.72l-1,1.87.85.46,1-1.88q2.59,1.4,5.21,2.91l-1.07,1.85.84.49,1.07-1.85c1.69,1,3.4,2,5.11,3.08l-1.09,1.76.83.51,1.09-1.76c1.66,1,3.33,2.13,5,3.25L345,48.84l.81.54,1.16-1.73q2.43,1.64,4.92,3.37L346,59.19A204,204,0,0,0,318.49,42.7ZM321.61,32q-2.7-1.29-5.45-2.51l2-4.44c1.88.84,3.75,1.69,5.6,2.58ZM305,19.59c1.92.72,3.84,1.47,5.74,2.24l-1.84,4.5c-1.86-.76-3.72-1.48-5.59-2.18Zm-2.6,4.21c-1.88-.69-3.77-1.35-5.66-2l1.55-4.6c1.94.66,3.88,1.34,5.8,2.05Zm9.24-1.61q2.85,1.17,5.67,2.42l-2,4.43q-2.75-1.21-5.52-2.35Zm-14.27-5.3-1.55,4.6c-1.9-.63-3.8-1.25-5.71-1.83l1.4-4.66C293.41,15.6,295.37,16.23,297.32,16.89Zm-7.54,3.7q2.85.87,5.68,1.82l-.67,2,.92.3.67-2c1.89.64,3.76,1.3,5.63,2l-.72,1.93.91.34.72-1.92c1.86.7,3.72,1.42,5.56,2.16l-.79,1.94.9.37.79-1.94c1.84.75,3.67,1.54,5.49,2.34L314,31.86l.88.4.87-1.94q2.73,1.21,5.42,2.5l-4.39,9a215.89,215.89,0,0,0-29.9-11.65Zm-1.6-1.48q-2.87-.86-5.78-1.62l1.22-4.71q3,.8,5.94,1.66ZM269.73,9.6q3,.59,6,1.25l-1.07,4.75c-1.95-.44-3.9-.85-5.87-1.23Zm-1.87,4.58q-3-.55-5.92-1l.77-4.8c2,.32,4.05.67,6.06,1.05Zm8.84-3.12c2,.46,4,1,6,1.47l-1.22,4.71q-2.9-.76-5.83-1.44ZM261.75,8.21,261,13q-3-.47-5.94-.84l.61-4.82C257.69,7.6,259.72,7.9,261.75,8.21Zm-6.83,4.93c2,.24,3.94.53,5.91.83l-.33,2,1,.15.33-2c2,.31,3.93.64,5.88,1l-.4,2.1,1,.19.41-2.1q2.92.57,5.84,1.22L274,18.63l.95.21.47-2.09q2.91.67,5.8,1.43l-.53,2,.94.25.52-2c1.93.52,3.85,1,5.75,1.62l-2.84,9.63a193.64,193.64,0,0,0-31.4-6.57Zm-1.24-6-.58,4.83c-2-.24-4-.44-6-.62l.43-4.84C249.61,6.66,251.65,6.86,253.68,7.1ZM233.33,5.63c2,.06,4.11.14,6.15.25l-.27,4.86c-2-.11-4-.2-6-.25Zm-1.09,4.82q-3-.06-6-.06l0-4.86q3.07,0,6.15.07Zm8.21-4.51q3.08.18,6.14.45l-.43,4.84c-2-.17-4-.32-6-.44Zm-15.21-.4,0,4.86c-2,0-4,0-6,.11l-.19-4.86C221.13,5.58,223.18,5.55,225.24,5.54Zm-5.93,5.94c2-.06,4-.1,6-.11v2.12h1V11.36q3,0,6,.07l-.06,2.09,1,0,.06-2.08c2,0,4,.14,6,.25l-.12,2,1,.05.12-2.05c2,.11,4,.26,5.95.43l-.18,2.1,1,.08.18-2.09q3,.27,5.94.61l-1.21,10a214.74,214.74,0,0,0-32.07-1.35ZM217.1,5.74l.21,4.86c-2,.08-4,.2-6,.34L211,6.1C213,6,215.08,5.82,217.1,5.74ZM210,6.17l.36,4.84q-3,.22-6,.55l-.52-4.82C205.92,6.51,208,6.33,210,6.17Zm-13.2,1.45c2.05-.29,4.08-.54,6.1-.77l.52,4.82c-2,.22-3.95.47-5.95.75Zm-.29,4.94c-1.95.28-3.93.61-5.93,1l-.82-4.79c2-.35,4.06-.68,6.07-1ZM188.79,8.9l.83,4.78c-2,.35-3.91.72-5.9,1.12l-1-4.76C184.77,9.62,186.78,9.25,188.79,8.9Zm-4.87,6.85q3-.6,5.86-1.11l.36,2,1-.17-.35-2c2-.34,3.95-.67,5.89-1l.3,2.09,1-.13-.3-2.09c2-.29,4-.53,5.93-.75l.23,2.13,1-.1-.23-2.14q3-.33,6-.55l.16,2.12,1-.08-.16-2.11c2-.14,4-.26,6-.34l.43,10a199.33,199.33,0,0,0-31.84,4Zm-3.12-5.31,1,4.75q-2.93.64-5.84,1.35l-1.16-4.72Q177.78,11.09,180.8,10.44ZM161.06,15.6c2-.6,3.92-1.19,5.9-1.74l1.31,4.68q-2.9.81-5.75,1.7Zm.53,4.92q-2.88.9-5.7,1.88l-1.61-4.59c1.94-.66,3.89-1.31,5.85-1.93Zm6.31-6.92c2-.55,4-1.06,6-1.55L175,16.77c-1.94.48-3.88,1-5.8,1.51Zm-14.53,4.53,1.6,4.59q-2.85,1-5.64,2.05l-1.75-4.54C149.49,19.5,151.42,18.81,153.37,18.13Zm-3.69,7.55q2.77-1.07,5.61-2l.7,2,.92-.32-.7-2q2.81-1,5.67-1.87l.63,2,.93-.29-.63-2q2.83-.87,5.72-1.68l.55,2,.94-.26-.55-2c1.91-.52,3.84-1,5.77-1.5l.5,2,.94-.23-.49-2c1.93-.47,3.87-.92,5.81-1.33L184.08,26A212.17,212.17,0,0,0,153.29,35Zm-4-4.72,1.77,4.52q-2.76,1.1-5.54,2.3L140,23.31C141.94,22.5,143.84,21.7,145.73,21Zm-18.6,8.39q2.76-1.39,5.53-2.71l2.06,4.4q-2.7,1.27-5.39,2.65Zm1.33,4.77q-2.66,1.37-5.3,2.82l-2.34-4.26c1.81-1,3.62-2,5.44-2.89Zm5.07-7.9c1.87-.87,3.75-1.71,5.62-2.53l1.91,4.47q-2.73,1.18-5.47,2.46ZM120,33.15l2.34,4.26c-1.74,1-3.48,1.94-5.22,3l-2.47-4.18C116.39,35.14,118.18,34.14,120,33.15Zm-2.38,8.06q2.58-1.51,5.19-3l1,1.83.85-.47-1-1.83c1.75-1,3.51-1.9,5.27-2.8l.93,1.83.87-.44-.93-1.83q2.67-1.35,5.36-2.63l.9,1.92.88-.41L136,31.5c1.81-.85,3.62-1.66,5.44-2.45l.84,1.95.89-.38-.84-1.95c1.84-.79,3.68-1.56,5.52-2.28l3.66,9.35a209,209,0,0,0-28.81,14.1Zm-4.68-4,2.5,4.18c-1.72,1-3.42,2.09-5.1,3.16l-2.63-4.09C109.41,39.35,111.14,38.27,112.91,37.2Zm-17,11.3c1.65-1.2,3.32-2.4,5-3.57l2.76,4q-2.49,1.71-4.89,3.48ZM98,53q-2.43,1.8-4.77,3.65l-3-3.81q2.4-1.89,4.89-3.75Zm3.71-8.61c1.68-1.15,3.4-2.28,5.13-3.39l2.63,4.08q-2.53,1.63-5,3.31ZM89.48,53.43l3,3.81c-1.57,1.25-3.12,2.52-4.63,3.81l-3.14-3.72Q87,55.35,89.48,53.43Zm-1,8.36c1.5-1.28,3-2.54,4.61-3.79l1.3,1.64.76-.61-1.3-1.64q2.33-1.83,4.75-3.63l1.27,1.73.78-.58-1.27-1.72q2.39-1.75,4.86-3.46l1.2,1.73.8-.55L105,49.17c1.63-1.11,3.3-2.21,5-3.29l1.12,1.74.82-.53-1.12-1.73c1.67-1.07,3.35-2.12,5.07-3.15l5.16,8.61A194.67,194.67,0,0,0,95,69.46Zm-5.27-3.18,3.15,3.7c-1.52,1.31-3,2.64-4.49,4L78.6,62.7C80.12,61.32,81.65,60,83.21,58.61Zm-14.86,14q2.15-2.19,4.35-4.34l3.38,3.48c-1.43,1.4-2.85,2.82-4.24,4.24Zm2.81,4.08c-1.4,1.44-2.77,2.9-4.11,4.36l-3.6-3.26c1.38-1.51,2.78-3,4.22-4.48Zm2.24-9.11c1.47-1.42,3-2.82,4.48-4.21L81.15,67q-2.2,2-4.37,4.1ZM62.79,78.49l3.6,3.26c-1.35,1.49-2.68,3-4,4.49l-3.7-3.15C60,81.54,61.41,80,62.79,78.49Zm.36,8.38c1.29-1.5,2.62-3,4-4.46l1.58,1.42.65-.72-1.57-1.42q2-2.19,4.09-4.35l1.51,1.47.68-.7-1.51-1.46q2.07-2.13,4.22-4.22l1.43,1.47.7-.67-1.43-1.48c1.42-1.38,2.88-2.74,4.35-4.08l1.41,1.55.72-.65L82.53,67c1.47-1.33,3-2.66,4.46-4l6.51,7.64A220.13,220.13,0,0,0,70.79,93.38Zm-2,.86c-1.28,1.54-2.54,3.09-3.78,4.67l-3.81-3c1.27-1.61,2.56-3.21,3.87-4.78ZM45.08,100.84c1.17-1.69,2.37-3.36,3.58-5l3.9,2.89q-1.77,2.41-3.48,4.88Zm3.44,3.56c-1.13,1.64-2.24,3.31-3.34,5l-4.08-2.64c1.13-1.72,2.26-3.43,3.42-5.12ZM49.23,95c1.22-1.65,2.47-3.28,3.73-4.89l3.81,3q-1.85,2.36-3.64,4.77Zm-8.66,12.53,4.09,2.63c-1.09,1.68-2.15,3.37-3.2,5.08l-4.17-2.5C38.36,111,39.46,109.29,40.57,107.57Zm1.73,8.21c1-1.7,2.1-3.38,3.17-5l1.77,1.14.52-.82L46,109.91c1.09-1.67,2.19-3.32,3.32-5L51,106.12l.55-.8-1.69-1.17q1.71-2.45,3.47-4.85L55,100.55l.58-.79-1.7-1.25q1.79-2.4,3.62-4.74l1.67,1.31.6-.76L58.13,93q1.86-2.35,3.76-4.64l7.67,6.48A219.35,219.35,0,0,0,50.9,121ZM40.46,117c-1,1.69-2,3.43-3,5.19l-4.25-2.34c1-1.81,2-3.6,3.07-5.34ZM26.7,132.5c.88-1.87,1.79-3.71,2.71-5.53l4.32,2.21q-1.33,2.65-2.63,5.39Zm4,2.95q-1.24,2.7-2.44,5.48L23.78,139c.82-1.9,1.65-3.78,2.51-5.63Zm-.84-9.35q1.43-2.76,2.89-5.44L37,123q-1.44,2.61-2.82,5.3Zm-6.45,13.8,4.47,1.92c-.78,1.84-1.55,3.68-2.29,5.55l-4.52-1.78C21.81,143.67,22.59,141.78,23.39,139.9Zm3.09,7.83q1.1-2.79,2.27-5.52l1.9.82.38-.89-1.9-.82c.79-1.84,1.6-3.67,2.43-5.46l1.92.9.41-.88L32,135c.85-1.82,1.73-3.61,2.62-5.37l1.9,1,.44-.86-1.9-1c.91-1.78,1.85-3.54,2.8-5.27l1.83,1,.47-.85-1.83-1c1-1.75,2-3.48,3-5.17l8.62,5.13a196.24,196.24,0,0,0-14.1,28.81Zm-1.62,1.47q-1.08,2.81-2.07,5.63l-4.59-1.61c.69-1.93,1.38-3.86,2.12-5.78Zm-11,17.6q.84-2.94,1.77-5.9l4.64,1.46c-.61,1.92-1.18,3.84-1.73,5.75ZM18.27,169q-.81,2.91-1.53,5.8L12,173.69c.49-2,1-4,1.57-6ZM15.92,160c.62-1.94,1.28-3.89,2-5.83l4.58,1.61c-.66,1.89-1.3,3.79-1.91,5.68Zm-4.13,14.66,4.72,1.16c-.48,2-.94,3.9-1.36,5.85l-4.75-1C10.82,178.64,11.29,176.64,11.79,174.63Zm4.31,7.21c.42-1.93.87-3.88,1.35-5.82l2.06.51.23-.95-2.06-.5c.48-1.92,1-3.85,1.53-5.77l2,.57.26-.94-2-.57q.81-2.85,1.71-5.72l2,.62.29-.93-2-.61c.6-1.89,1.24-3.78,1.9-5.66l2,.69.32-.92-2-.69q1-2.81,2.05-5.6l9.36,3.63a207.62,207.62,0,0,0-9.19,30.73Zm-1.35,1.71c-.4,2-.76,3.92-1.1,5.9l-4.79-.83c.35-2,.72-4.05,1.13-6.05ZM6.88,202.74c.22-2.05.47-4.08.75-6.11l4.81.67q-.4,3-.73,6Zm4.72,1.49c-.21,2-.38,4-.54,6l-4.84-.36q.24-3.08.55-6.14Zm-3.85-8.57c.29-2,.61-4.06.95-6.08l4.78.83c-.33,2-.63,3.94-.91,5.93ZM6.15,210.8l4.84.37c-.14,2-.27,4-.36,6L5.77,217C5.86,214.89,6,212.85,6.15,210.8Zm5.45,6.4c.09-2,.22-4,.36-6l2.08.16.07-1L12,210.27c.16-2,.33-4,.54-5.94l2,.22.1-1-2-.22c.21-2,.45-4,.72-5.92l2.09.29.14-1-2.1-.3c.28-2,.58-3.94.91-5.89l2.1.36.16-1-2.09-.36q.51-3,1.09-5.87l9.83,2a212,212,0,0,0-3.9,31.85Zm-1,1.91c-.07,2-.11,4-.14,6l-4.85,0c0-2,.06-4.08.13-6.15Zm-5,13.1c0-2,0-4.09,0-6.16l4.86,0c0,2,0,4,0,6Zm4.88.85c0,2,.13,4,.23,6l-4.84.28q-.16-3-.24-6.15ZM5.9,240.3l4.84-.28c.12,2,.26,4,.44,6l-4.84.43Q6.09,243.41,5.9,240.3Zm1.19,13.23c-.25-2-.47-4.06-.66-6.12l4.84-.43c.19,2,.4,4,.65,6Zm5.79-.71c-.25-2-.46-3.94-.65-5.93l2.12-.19-.09-1-2.12.19q-.25-3-.43-5.95l2.15-.13-.06-1-2.14.13q-.15-3-.23-6l2.11-.05,0-1-2.11.05c0-2,0-4,0-6h2.07v-1H11.39c0-2,.06-4,.13-6l10,.39a199,199,0,0,0,1.29,32.07Zm-.73,2.07c.26,2,.55,3.95.87,5.93l-4.8.76c-.32-2-.63-4.05-.9-6.08ZM10.9,275.58q-.68-3-1.27-6l4.78-.92q.57,2.94,1.23,5.87Zm4.94-.12q.68,2.94,1.42,5.83l-4.7,1.22c-.51-2-1-4-1.46-6Zm-6.4-6.85c-.38-2-.73-4-1.07-6.07l4.8-.76c.33,2,.67,3.94,1.05,5.91Zm5,20.78c-.57-2-1.1-3.95-1.62-5.94l4.7-1.22c.51,1.94,1,3.87,1.59,5.79Zm5.6-1.64q-.82-2.87-1.58-5.76l2-.53-.24-.94-2,.53c-.49-1.93-1-3.86-1.41-5.8l2-.45-.21-.95-2,.45q-.64-2.91-1.22-5.84l2.05-.39-.18-1-2.06.4q-.55-2.94-1-5.88l2.09-.33-.15-1-2.09.33q-.48-3-.87-5.91l10-1.25a215.87,215.87,0,0,0,6.58,31.41Zm-.37,2.15c.57,1.92,1.17,3.82,1.8,5.72l-4.61,1.54c-.64-2-1.27-3.9-1.85-5.87Zm2.09,20.65q-1.15-2.85-2.23-5.74l4.56-1.69c.7,1.88,1.42,3.74,2.17,5.6Zm4.86-.93q1.16,2.78,2.37,5.51l-4.44,2c-.83-1.87-1.65-3.76-2.43-5.66Zm-7.43-5.72c-.71-1.92-1.38-3.86-2-5.81l4.61-1.54q.95,2.85,2,5.66Zm8.37,19.67c-.9-1.84-1.76-3.7-2.61-5.57l4.44-2c.83,1.83,1.67,3.64,2.55,5.43ZM32.79,321c-.87-1.78-1.71-3.59-2.53-5.41l1.89-.84-.4-.89-1.89.85q-1.21-2.73-2.36-5.49l2-.81-.37-.9-2,.81c-.74-1.84-1.47-3.7-2.16-5.57l2-.74-.34-.91-2,.75c-.69-1.87-1.34-3.75-2-5.64l2-.66-.31-.92-2,.65c-.62-1.89-1.22-3.78-1.79-5.69l9.62-2.87a193.53,193.53,0,0,0,11.62,29.9Zm0,2.19q1.33,2.67,2.75,5.33l-4.29,2.28c-1-1.81-1.91-3.64-2.83-5.47Zm5.52,20q-1.6-2.62-3.14-5.29l4.21-2.42q1.5,2.6,3.07,5.16Zm4.64-1.72q1.57,2.55,3.23,5.06l-4,2.69c-1.12-1.72-2.23-3.45-3.31-5.19Zm-8.27-4.41q-1.53-2.67-3-5.39L36,329.41c1,1.76,1.91,3.51,2.9,5.25ZM46.1,355.14q-1.76-2.52-3.45-5.09l4-2.69c1.11,1.67,2.23,3.33,3.38,5Zm4.76-3.38q-1.71-2.44-3.36-4.93l1.77-1.18-.54-.81L47,346q-1.63-2.49-3.21-5l1.78-1.1-.51-.83-1.77,1.1q-1.56-2.55-3-5.13L42,334l-.49-.85-1.78,1c-1-1.73-1.95-3.48-2.89-5.23l1.86-1-.46-.86-1.86,1c-.93-1.76-1.84-3.52-2.73-5.3l9-4.42A216.67,216.67,0,0,0,59,345.94Zm.36,2.15c1.15,1.61,2.35,3.22,3.57,4.82l-3.85,3c-1.26-1.64-2.49-3.29-3.67-4.94ZM60,372.71q-2.05-2.34-4-4.68l3.75-3.09c1.27,1.52,2.56,3.05,3.9,4.57Zm4.3-2.47q2,2.2,4,4.43L64.78,378c-1.42-1.52-2.81-3-4.15-4.55Zm-8.91-3c-1.32-1.6-2.6-3.21-3.84-4.81l3.85-3q1.82,2.34,3.74,4.69ZM69.7,383.14c-1.46-1.49-2.87-3-4.26-4.44L69,375.38c1.35,1.44,2.73,2.88,4.16,4.33ZM73.83,379c-1.42-1.44-2.79-2.87-4.13-4.3l1.52-1.42-.66-.71L69,374c-1.38-1.47-2.73-2.94-4-4.41l1.56-1.36-.64-.73-1.56,1.36q-2-2.28-3.87-4.54L62.14,363l-.61-.75-1.66,1.36c-1.27-1.55-2.52-3.11-3.72-4.66l1.69-1.3-.59-.77-1.69,1.29c-1.22-1.59-2.41-3.19-3.55-4.8l8.15-5.85a203.4,203.4,0,0,0,20.78,24.44Zm.7,2.07q2.13,2.12,4.31,4.18l-3.31,3.55c-1.5-1.41-3-2.83-4.43-4.28Zm5,4.84c1.46,1.37,2.94,2.71,4.44,4l-3.2,3.65c-1.54-1.35-3.06-2.74-4.55-4.14Zm2,8.33,3.19-3.66,2.27,2c.77.65,1.54,1.28,2.31,1.91l-3.08,3.76C84.63,396.93,83.07,395.61,81.53,394.26Zm8.52.84c1.55,1.27,3.12,2.5,4.71,3.72l-3,3.85q-2.44-1.87-4.83-3.81Zm2.52,8.16,3-3.85q2.39,1.81,4.82,3.57l-2.84,3.94C95.85,405.73,94.2,404.5,92.57,403.26Zm8.35-1.07c-1.62-1.16-3.21-2.35-4.8-3.55L97.39,397l-.77-.6-1.27,1.65q-2.37-1.82-4.69-3.7L92,392.7l-.75-.62-1.35,1.65q-2.31-1.89-4.56-3.86l1.41-1.6-.73-.64-1.41,1.61c-1.49-1.32-3-2.66-4.42-4l1.42-1.52-.71-.66-1.41,1.51c-1.45-1.36-2.89-2.74-4.29-4.15l7.07-7.12A195.49,195.49,0,0,0,106.78,394Zm1,1.93c1.67,1.17,3.32,2.29,5,3.39l-2.69,4c-1.68-1.12-3.37-2.27-5.08-3.47Zm14.34,15Q113.66,417.6,111,416l2.56-4.13q2.59,1.6,5.14,3.1Zm3.26-3.72c1.75,1,3.5,2,5.24,2.92l-2.28,4.29c-1.79-1-3.59-2-5.38-3Zm-9.36,0c-1.71-1.07-3.44-2.2-5.17-3.35l2.69-4q2.53,1.68,5,3.26Zm13.17,7.63,2.29-4.28c1.79.94,3.57,1.86,5.35,2.73l-2.15,4.36C127,425,125.18,424,123.35,423.07Zm8.07-2.42c-1.77-.87-3.55-1.78-5.32-2.72l1-1.88-.86-.45-1,1.88q-2.59-1.41-5.21-2.91l1.07-1.86-.85-.48-1.06,1.85c-1.7-1-3.4-2-5.11-3.08l1.08-1.76-.82-.51-1.09,1.76c-1.66-1.05-3.33-2.14-5-3.25l1.15-1.73-.81-.54-1.15,1.73q-2.45-1.63-4.92-3.37l5.83-8.18a203.12,203.12,0,0,0,27.52,16.5Zm1.32,1.75c1.8.86,3.62,1.69,5.45,2.51l-2,4.43c-1.87-.83-3.74-1.69-5.59-2.57Zm16.65,12.35q-2.88-1.08-5.73-2.23l1.84-4.5c1.85.75,3.72,1.48,5.59,2.18Zm2.61-4.21c1.88.7,3.76,1.36,5.65,2l-1.54,4.61q-2.91-1-5.81-2Zm-9.25,1.62q-2.83-1.17-5.66-2.42l2-4.43c1.83.8,3.67,1.59,5.52,2.35Zm14.28,5.3,1.55-4.61c1.9.64,3.8,1.26,5.71,1.84l-1.4,4.66C160.93,438.75,159,438.11,157,437.46Zm7.54-3.7c-1.9-.58-3.79-1.2-5.68-1.83l.66-2-.92-.31-.67,2q-2.82-1-5.62-2l.72-1.93-.92-.33-.71,1.92c-1.86-.7-3.72-1.42-5.56-2.17l.79-1.93-.9-.37-.8,1.94c-1.84-.75-3.67-1.54-5.49-2.34l.87-1.94-.89-.39-.86,1.93q-2.73-1.22-5.43-2.5l4.4-9a215.22,215.22,0,0,0,29.89,11.64Zm1.6,1.48q2.87.86,5.78,1.62l-1.23,4.71q-3-.79-5.93-1.66Zm18.45,9.51q-3-.58-6-1.26l1.07-4.74q2.93.66,5.88,1.23Zm1.87-4.58c2,.37,3.94.7,5.91,1l-.76,4.8c-2-.33-4-.67-6.07-1.05Zm-8.85,3.11q-3-.69-6-1.47l1.23-4.7q2.9.75,5.82,1.43Zm15,2.86.77-4.8q3,.45,5.94.83L198.7,447Q195.64,446.61,192.6,446.14Zm6.83-4.93c-2-.25-3.94-.53-5.91-.83l.32-2-1-.15-.32,2q-3-.47-5.89-1l.41-2.1-1-.18-.4,2.09q-2.92-.56-5.84-1.22l.47-2.08-.95-.22-.47,2.09c-1.94-.44-3.88-.92-5.8-1.42l.52-2-.94-.24-.52,2c-1.93-.51-3.84-1-5.75-1.61l2.84-9.63a193.54,193.54,0,0,0,31.41,6.57Zm1.23,6,.59-4.83c2,.23,4,.43,6,.61l-.43,4.84C204.74,447.69,202.7,447.49,200.66,447.25ZM221,448.72q-3.07-.09-6.15-.26l.28-4.85q3,.17,6,.25Zm1.1-4.83q3,.08,6,.06l0,4.86q-3.07,0-6.15-.06Zm-8.22,4.52c-2-.12-4.09-.27-6.14-.45l.44-4.84q3,.25,6,.44Zm15.22.4,0-4.86q3,0,6-.11l.19,4.86C233.22,448.76,231.17,448.79,229.11,448.81Zm5.93-5.95c-2,.07-4,.1-6,.12v-2.12h-1l0,2.11q-3,0-6-.06l.05-2.09-1,0-.05,2.09q-3-.09-6-.25l.11-2.05-1-.06-.11,2.06q-3-.18-6-.44l.19-2.09-1-.09-.18,2.1q-3-.27-5.94-.61l1.21-10a216,216,0,0,0,32.07,1.34Zm2.2,5.74-.21-4.86c2-.07,4-.19,6-.34l.37,4.85Q240.3,448.48,237.24,448.6Zm7.12-.42-.37-4.84c2-.15,4-.34,6-.55l.52,4.83Q247.4,447.95,244.36,448.18Zm13.2-1.45c-2.05.3-4.09.55-6.1.78l-.52-4.83c2-.23,3.94-.47,5.95-.76Zm.29-4.94c1.95-.29,3.93-.61,5.92-1l.83,4.79c-2,.35-4.07.69-6.07,1Zm7.71,3.66-.83-4.79q2.91-.51,5.9-1.11l1,4.76C269.57,444.72,267.56,445.1,265.56,445.45Zm4.87-6.85c-2,.4-3.93.76-5.86,1.11l-.36-2-1,.16.36,2q-3,.53-5.89,1l-.3-2.09-1,.13.29,2.09q-3,.42-5.92.75l-.23-2.13-1,.1.23,2.14c-2,.21-4,.4-5.94.55l-.16-2.12-1,.07.16,2.12c-2,.14-4,.26-6,.33l-.44-10a197,197,0,0,0,31.85-4Zm3.12,5.31-1-4.76q2.94-.63,5.85-1.34l1.16,4.72C277.55,443,275.56,443.48,273.55,443.91Zm19.74-5.16q-2.94.9-5.91,1.74l-1.3-4.69q2.9-.81,5.75-1.69Zm-.53-4.92c1.92-.61,3.82-1.23,5.7-1.88l1.6,4.58c-1.93.67-3.88,1.32-5.84,1.93Zm-6.31,6.92q-3,.81-6,1.55l-1.16-4.72q2.93-.72,5.81-1.51ZM301,436.22l-1.6-4.59c1.89-.66,3.78-1.34,5.64-2.05l1.75,4.53Q303.91,435.2,301,436.22Zm3.69-7.55c-1.85.71-3.73,1.38-5.61,2l-.7-2-.92.32.7,2c-1.88.65-3.76,1.27-5.67,1.87l-.63-2-.93.29.63,2q-2.84.88-5.73,1.69l-.54-2-.94.27.55,2q-2.86.8-5.78,1.5l-.49-2-.95.23.5,2q-2.9.7-5.82,1.34l-2.07-9.82a212.41,212.41,0,0,0,30.78-9.07Zm-1.84-10.06a209.12,209.12,0,0,0,28.81-14.11l5.12,8.64q-2.6,1.51-5.19,2.95l-1-1.83-.86.47,1,1.83c-1.76.95-3.51,1.89-5.27,2.8l-.94-1.84-.86.44.93,1.83c-1.79.91-3.57,1.78-5.36,2.63l-.9-1.91-.88.41.9,1.92c-1.81.85-3.63,1.67-5.44,2.46l-.84-2-.89.39.84,1.95q-2.76,1.19-5.52,2.28Zm16.8,4.69q2.7-1.28,5.39-2.64l2.2,4.33q-2.76,1.41-5.53,2.71Zm1.18,4.82q-2.81,1.32-5.61,2.53l-1.92-4.46q2.75-1.19,5.47-2.47Zm5.08-7.9c1.77-.9,3.53-1.85,5.3-2.81l2.33,4.26c-1.8,1-3.62,1.95-5.43,2.89Zm-17.28,13.17-1.77-4.53c1.85-.73,3.7-1.5,5.55-2.29l1.92,4.47C312.41,431.85,310.51,432.64,308.61,433.39Zm25.77-12.19L332,416.94c1.74-1,3.48-1.95,5.21-3l2.48,4.18Q337.06,419.72,334.38,421.2Z"/></g></g></svg>